<?xml version="1.0" encoding="utf-8"?>
<!-- Generator: Adobe Illustrator 12.0.0, SVG Export Plug-In . SVG Version: 6.00 Build 51448)  -->
<!DOCTYPE svg PUBLIC "-//W3C//DTD SVG 1.1//EN" "http://www.w3.org/Graphics/SVG/1.1/DTD/svg11.dtd" [
	<!ENTITY ns_svg "http://www.w3.org/2000/svg">
	<!ENTITY ns_xlink "http://www.w3.org/1999/xlink">
]>
<svg  version="1.1" id="Layer_1" xmlns="&ns_svg;" xmlns:xlink="&ns_xlink;" width="52" height="41.673" viewBox="0 0 52 41.673"
	 overflow="visible" enable-background="new 0 0 52 41.673" xml:space="preserve">
<linearGradient id="XMLID_5_" gradientUnits="userSpaceOnUse" x1="0" y1="14.979" x2="51.6675" y2="14.979">
	<stop  offset="0" style="stop-color:#00B3BE"/>
	<stop  offset="1" style="stop-color:#292873"/>
</linearGradient>
<path fill-rule="evenodd" clip-rule="evenodd" fill="url(#XMLID_5_)" d="M51.667,29.958c-17.716,0-40.757,0-40.757,0l-1.085-0.064
	l-1.084-0.195l-1.084-0.326L6.7,28.983l-0.958-0.521l-0.893-0.65l-0.893-0.719L3.19,26.247l-0.702-0.846L1.85,24.422l-0.51-1.039
	l-0.446-1.109l-0.383-1.172l-0.32-1.238l-0.127-1.234L0,17.324v-4.689l0.063-1.303l0.127-1.236l0.32-1.238l0.383-1.105L1.34,6.643
	l0.51-1.041l0.638-0.979L3.19,3.711l0.766-0.844l0.893-0.719l0.893-0.65L6.7,0.977l0.957-0.391L8.741,0.26l1.084-0.195L10.911,0
	c0,0,22.754,0,40.424,0"/>
<linearGradient id="XMLID_6_" gradientUnits="userSpaceOnUse" x1="2.6797" y1="15.0122" x2="52.0005" y2="15.0122">
	<stop  offset="0" style="stop-color:#00B3BE"/>
	<stop  offset="1" style="stop-color:#292873"/>
</linearGradient>
<path fill-rule="evenodd" clip-rule="evenodd" fill="url(#XMLID_6_)" d="M51.334,27.092c-16.585,0-38.382,0-38.382,0l-1.02-0.064
	l-1.021-0.131l-1.021-0.26l-0.957-0.324L8.04,25.858l-0.83-0.521l-0.766-0.588l-0.765-0.65l-0.638-0.715l-0.638-0.785l-0.511-0.846
	l-0.383-0.91l-0.382-0.914l-0.255-0.975L2.744,17.91L2.68,16.869v-3.777l0.064-1.041l0.128-0.979l0.255-0.977l0.382-0.979
	l0.383-0.846l0.511-0.846l0.638-0.783l0.638-0.715l0.765-0.65l0.766-0.59l0.83-0.52l0.894-0.457L9.89,3.387l1.021-0.26l1.021-0.131
	l1.02-0.064c0,0,22.387,0,39.048,0"/>
<linearGradient id="XMLID_7_" gradientUnits="userSpaceOnUse" x1="17.4185" y1="27.0288" x2="52.0005" y2="27.0288">
	<stop  offset="0" style="stop-color:#00B3BE"/>
	<stop  offset="1" style="stop-color:#292873"/>
</linearGradient>
<path fill-rule="evenodd" clip-rule="evenodd" fill="url(#XMLID_7_)" d="M51,28.657c-13.297,0-32.178,0-32.178,0l-0.511-0.129
	l-0.447-0.326l-0.318-0.523l-0.128-0.65l0.128-0.65l0.318-0.52l0.447-0.326l0.511-0.131c0,0,19.851,0,33.178,0"/>
<polygon fill-rule="evenodd" clip-rule="evenodd" fill="#2C2F74" points="15.284,8.857 15.22,9.38 15.156,9.835 14.964,10.226 
	14.709,10.551 14.391,10.876 14.007,11.071 13.625,11.202 13.178,11.267 12.731,11.202 12.348,11.071 12.03,10.876 11.711,10.551 
	11.456,10.226 11.264,9.835 11.2,9.38 11.136,8.857 11.2,8.401 11.264,7.946 11.456,7.556 11.711,7.163 12.03,6.837 12.348,6.642 
	12.731,6.512 13.178,6.447 13.625,6.512 14.007,6.642 14.391,6.837 14.709,7.163 14.964,7.556 15.156,7.946 15.22,8.401 
	15.284,8.857 "/>
<polygon fill-rule="evenodd" clip-rule="evenodd" fill="#2C2F74" points="22.493,8.857 22.43,9.38 22.302,9.835 22.11,10.226 
	21.855,10.551 21.537,10.876 21.218,11.071 20.835,11.202 20.388,11.267 19.941,11.202 19.559,11.071 19.24,10.876 18.92,10.551 
	18.665,10.226 18.474,9.835 18.41,9.38 18.346,8.857 18.41,8.401 18.474,7.946 18.665,7.556 18.92,7.163 19.24,6.837 19.559,6.642 
	19.941,6.512 20.388,6.447 20.835,6.512 21.218,6.642 21.537,6.837 21.855,7.163 22.11,7.556 22.302,7.946 22.43,8.401 
	22.493,8.857 "/>
<polygon fill-rule="evenodd" clip-rule="evenodd" fill="#2C2F74" points="29.704,8.857 29.64,9.38 29.512,9.835 29.321,10.226 
	29.065,10.551 28.747,10.876 28.428,11.071 28.045,11.202 27.598,11.267 27.151,11.202 26.768,11.071 26.45,10.876 26.13,10.551 
	25.875,10.226 25.683,9.835 25.557,9.38 25.492,8.857 25.557,8.401 25.683,7.946 25.875,7.556 26.13,7.163 26.45,6.837 
	26.768,6.642 27.151,6.512 27.598,6.447 28.045,6.512 28.428,6.642 28.747,6.837 29.065,7.163 29.321,7.556 29.512,7.946 
	29.64,8.401 29.704,8.857 "/>
<polygon fill-rule="evenodd" clip-rule="evenodd" fill="#2C2F74" points="36.914,8.857 36.85,9.38 36.722,9.835 36.531,10.226 
	36.276,10.551 35.957,10.876 35.637,11.071 35.254,11.202 34.808,11.267 34.361,11.202 33.978,11.071 33.66,10.876 33.34,10.551 
	33.085,10.226 32.893,9.835 32.766,9.38 32.703,8.857 32.766,8.401 32.893,7.946 33.085,7.556 33.34,7.163 33.66,6.837 
	33.978,6.642 34.361,6.512 34.808,6.447 35.254,6.512 35.637,6.642 35.957,6.837 36.276,7.163 36.531,7.556 36.722,7.946 
	36.85,8.401 36.914,8.857 "/>
<polygon fill-rule="evenodd" clip-rule="evenodd" fill="#2C2F74" points="44.124,8.857 44.06,9.38 43.932,9.835 43.741,10.226 
	43.486,10.551 43.167,10.876 42.847,11.071 42.464,11.202 42.018,11.267 41.571,11.202 41.188,11.071 40.87,10.876 40.551,10.551 
	40.295,10.226 40.104,9.835 39.976,9.38 39.913,8.857 39.976,8.401 40.104,7.946 40.295,7.556 40.551,7.163 40.87,6.837 
	41.188,6.642 41.571,6.512 42.018,6.447 42.464,6.512 42.847,6.642 43.167,6.837 43.486,7.163 43.741,7.556 43.932,7.946 
	44.06,8.401 44.124,8.857 "/>
<polygon fill-rule="evenodd" clip-rule="evenodd" fill="#2C2F74" points="51.334,8.857 51.269,9.38 51.142,9.835 50.951,10.226 
	50.695,10.551 50.376,10.876 50.058,11.071 49.675,11.202 49.227,11.267 48.782,11.202 48.398,11.071 48.079,10.876 47.76,10.551 
	47.506,10.226 47.315,9.835 47.186,9.38 47.123,8.857 47.186,8.401 47.315,7.946 47.506,7.556 47.76,7.163 48.079,6.837 
	48.398,6.642 48.782,6.512 49.227,6.447 49.675,6.512 50.058,6.642 50.376,6.837 50.695,7.163 50.951,7.556 51.142,7.946 
	51.269,8.401 51.334,8.857 "/>
<polygon fill-rule="evenodd" clip-rule="evenodd" fill="#2C2F74" points="18.091,15.24 18.027,15.696 17.9,16.151 17.708,16.544 
	17.453,16.934 17.134,17.259 16.814,17.455 16.432,17.584 15.985,17.65 15.539,17.584 15.156,17.455 14.837,17.259 14.518,16.934 
	14.263,16.544 14.072,16.151 13.943,15.696 13.88,15.24 13.943,14.72 14.072,14.33 14.263,13.875 14.518,13.546 14.837,13.286 
	15.156,13.091 15.539,12.96 15.985,12.896 16.432,12.96 16.814,13.091 17.134,13.286 17.453,13.546 17.708,13.875 17.9,14.33 
	18.027,14.72 18.091,15.24 "/>
<polygon fill-rule="evenodd" clip-rule="evenodd" fill="#2C2F74" points="25.301,15.24 25.237,15.696 25.109,16.151 24.918,16.544 
	24.663,16.934 24.344,17.259 24.025,17.455 23.642,17.584 23.196,17.65 22.749,17.584 22.366,17.455 22.047,17.259 21.728,16.934 
	21.472,16.544 21.281,16.151 21.153,15.696 21.09,15.24 21.153,14.72 21.281,14.33 21.472,13.875 21.728,13.546 22.047,13.286 
	22.366,13.091 22.749,12.96 23.196,12.896 23.642,12.96 24.025,13.091 24.344,13.286 24.663,13.546 24.918,13.875 25.109,14.33 
	25.237,14.72 25.301,15.24 "/>
<polygon fill-rule="evenodd" clip-rule="evenodd" fill="#2C2F74" points="32.51,15.24 32.447,15.696 32.32,16.151 32.127,16.544 
	31.874,16.934 31.554,17.259 31.235,17.455 30.852,17.584 30.406,17.65 29.958,17.584 29.576,17.455 29.257,17.259 28.938,16.934 
	28.682,16.544 28.491,16.151 28.364,15.696 28.299,15.24 28.364,14.72 28.491,14.33 28.682,13.875 28.938,13.546 29.257,13.286 
	29.576,13.091 29.958,12.96 30.406,12.896 30.852,12.96 31.235,13.091 31.554,13.286 31.874,13.546 32.127,13.875 32.32,14.33 
	32.447,14.72 32.51,15.24 "/>
<polygon fill-rule="evenodd" clip-rule="evenodd" fill="#2C2F74" points="39.721,15.24 39.658,15.696 39.53,16.151 39.338,16.544 
	39.083,16.934 38.764,17.259 38.445,17.455 38.062,17.584 37.616,17.65 37.168,17.584 36.786,17.455 36.467,17.259 36.148,16.934 
	35.892,16.544 35.702,16.151 35.574,15.696 35.509,15.24 35.574,14.72 35.702,14.33 35.892,13.875 36.148,13.546 36.467,13.286 
	36.786,13.091 37.168,12.96 37.616,12.896 38.062,12.96 38.445,13.091 38.764,13.286 39.083,13.546 39.338,13.875 39.53,14.33 
	39.658,14.72 39.721,15.24 "/>
<polygon fill-rule="evenodd" clip-rule="evenodd" fill="#2C2F74" points="46.866,15.24 46.804,15.696 46.739,16.151 46.547,16.544 
	46.293,16.934 45.975,17.259 45.655,17.455 45.272,17.584 44.826,17.65 44.379,17.584 43.997,17.455 43.676,17.259 43.358,16.934 
	43.103,16.544 42.912,16.151 42.784,15.696 42.72,15.24 42.784,14.72 42.912,14.33 43.103,13.875 43.358,13.546 43.676,13.286 
	43.997,13.091 44.379,12.96 44.826,12.896 45.272,12.96 45.655,13.091 45.975,13.286 46.293,13.546 46.547,13.875 46.739,14.33 
	46.804,14.72 46.866,15.24 "/>
<polygon fill-rule="evenodd" clip-rule="evenodd" fill="#2C2F74" points="14.135,20.843 14.072,21.364 13.943,21.819 13.752,22.208 
	13.497,22.534 13.178,22.859 12.859,23.058 12.476,23.184 12.03,23.252 11.583,23.184 11.2,23.058 10.881,22.859 10.562,22.534 
	10.307,22.208 10.115,21.819 9.987,21.364 9.924,20.843 9.987,20.384 10.115,19.929 10.307,19.54 10.562,19.149 10.881,18.824 
	11.2,18.628 11.583,18.496 12.03,18.43 12.476,18.496 12.859,18.628 13.178,18.824 13.497,19.149 13.752,19.54 13.943,19.929 
	14.072,20.384 14.135,20.843 "/>
<polygon fill-rule="evenodd" clip-rule="evenodd" fill="#2C2F74" points="21.345,20.843 21.281,21.364 21.153,21.819 20.962,22.208 
	20.707,22.534 20.388,22.859 20.069,23.058 19.686,23.184 19.24,23.252 18.792,23.184 18.41,23.058 18.091,22.859 17.772,22.534 
	17.517,22.208 17.325,21.819 17.198,21.364 17.134,20.843 17.198,20.384 17.325,19.929 17.517,19.54 17.772,19.149 18.091,18.824 
	18.41,18.628 18.792,18.496 19.24,18.43 19.686,18.496 20.069,18.628 20.388,18.824 20.707,19.149 20.962,19.54 21.153,19.929 
	21.281,20.384 21.345,20.843 "/>
<polygon fill-rule="evenodd" clip-rule="evenodd" fill="#2C2F74" points="28.555,20.843 28.491,21.364 28.364,21.819 28.172,22.208 
	27.917,22.534 27.598,22.859 27.28,23.058 26.897,23.184 26.45,23.252 26.002,23.184 25.62,23.058 25.301,22.859 24.982,22.534 
	24.727,22.208 24.536,21.819 24.408,21.364 24.344,20.843 24.408,20.384 24.536,19.929 24.727,19.54 24.982,19.149 25.301,18.824 
	25.62,18.628 26.002,18.496 26.45,18.43 26.897,18.496 27.28,18.628 27.598,18.824 27.917,19.149 28.172,19.54 28.364,19.929 
	28.491,20.384 28.555,20.843 "/>
<polygon fill-rule="evenodd" clip-rule="evenodd" fill="#2C2F74" points="35.765,20.843 35.702,21.364 35.574,21.819 35.382,22.208 
	35.126,22.534 34.808,22.859 34.49,23.058 34.107,23.184 33.66,23.252 33.213,23.184 32.831,23.058 32.51,22.859 32.192,22.534 
	31.937,22.208 31.745,21.819 31.618,21.364 31.554,20.843 31.618,20.384 31.745,19.929 31.937,19.54 32.192,19.149 32.51,18.824 
	32.831,18.628 33.213,18.496 33.66,18.43 34.107,18.496 34.49,18.628 34.808,18.824 35.126,19.149 35.382,19.54 35.574,19.929 
	35.702,20.384 35.765,20.843 "/>
<polygon fill-rule="evenodd" clip-rule="evenodd" fill="#2C2F74" points="42.975,20.843 42.912,21.364 42.784,21.819 42.592,22.208 
	42.337,22.534 42.018,22.859 41.699,23.058 41.316,23.184 40.87,23.252 40.422,23.184 40.04,23.058 39.721,22.859 39.402,22.534 
	39.147,22.208 38.955,21.819 38.828,21.364 38.764,20.843 38.828,20.384 38.955,19.929 39.147,19.54 39.402,19.149 39.721,18.824 
	40.04,18.628 40.422,18.496 40.87,18.43 41.316,18.496 41.699,18.628 42.018,18.824 42.337,19.149 42.592,19.54 42.784,19.929 
	42.912,20.384 42.975,20.843 "/>
<polygon fill-rule="evenodd" clip-rule="evenodd" fill="#2C2F74" points="50.121,20.843 50.058,21.364 49.995,21.819 49.802,22.208 
	49.547,22.534 49.227,22.859 48.908,23.058 48.526,23.184 48.079,23.252 47.633,23.184 47.25,23.058 46.931,22.859 46.613,22.534 
	46.357,22.208 46.166,21.819 46.037,21.364 45.975,20.843 46.037,20.384 46.166,19.929 46.357,19.54 46.613,19.149 46.931,18.824 
	47.25,18.628 47.633,18.496 48.079,18.43 48.526,18.496 48.908,18.628 49.227,18.824 49.547,19.149 49.802,19.54 49.995,19.929 
	50.058,20.384 50.121,20.843 "/>
<linearGradient id="XMLID_8_" gradientUnits="userSpaceOnUse" x1="8.436" y1="27.2446" x2="28.5801" y2="27.2446">
	<stop  offset="0" style="stop-color:#FEE25F"/>
	<stop  offset="1" style="stop-color:#F89825"/>
</linearGradient>
<polygon fill="url(#XMLID_8_)" points="26.252,24.049 26.252,24.049 25.442,25.904 24.733,27.244 24.126,28.481 24.126,28.481 
	23.924,28.791 23.721,28.997 23.417,29.099 23.215,29.099 22.81,28.997 22.506,28.687 22.506,28.687 22.304,28.275 22.203,27.657 
	22.102,26.317 22.102,15.598 22.102,15.598 22,15.185 21.798,14.773 21.393,14.464 20.887,14.361 20.887,14.361 20.482,14.464 
	20.077,14.773 19.773,15.185 19.773,15.598 19.773,24.976 19.773,24.976 19.672,25.183 19.571,25.389 19.369,25.492 19.064,25.595 
	19.064,25.595 18.862,25.492 18.66,25.389 18.559,25.183 18.458,24.976 18.458,14.051 18.458,14.051 18.458,13.743 18.356,13.537 
	17.951,13.125 17.546,12.917 17.243,12.815 16.939,12.815 16.939,12.815 16.534,12.917 16.129,13.125 15.826,13.537 15.724,13.743 
	15.724,14.051 15.724,25.286 15.724,25.286 15.623,25.492 15.522,25.698 15.319,25.801 15.016,25.904 15.016,25.904 14.813,25.801 
	14.611,25.698 14.51,25.492 14.408,25.286 14.408,15.289 14.408,15.289 14.307,14.876 14.105,14.464 13.7,14.258 13.194,14.155 
	13.194,14.155 12.789,14.258 12.384,14.464 12.182,14.876 12.08,15.289 12.08,25.595 12.08,25.595 12.08,25.595 11.979,25.801 
	11.878,26.007 11.675,26.213 11.473,26.213 11.473,26.213 11.169,26.213 10.967,26.007 10.866,25.801 10.764,25.595 10.866,19.308 
	10.866,19.308 10.764,18.896 10.46,18.484 10.056,18.174 9.651,18.071 9.651,18.071 9.145,18.174 8.74,18.484 8.537,18.896 
	8.436,19.308 8.436,33.84 8.436,33.84 8.537,34.458 8.537,34.458 8.537,36.004 8.537,36.004 8.639,36.52 8.841,37.035 9.043,37.55 
	9.347,38.066 10.157,38.994 11.169,39.818 12.384,40.643 13.801,41.158 14.51,41.467 15.319,41.57 16.028,41.673 16.838,41.673 
	16.838,41.673 18.458,41.57 19.773,41.261 20.988,40.849 22,40.23 22.911,39.509 23.721,38.684 24.329,37.756 24.733,36.932 
	24.733,36.932 25.341,35.386 26.049,33.325 27.061,30.439 27.061,30.439 27.77,27.863 28.276,25.904 28.581,24.255 28.581,24.255 
	28.581,23.636 28.479,23.224 28.174,22.916 27.77,22.812 27.264,22.916 26.86,23.122 26.454,23.534 26.252,24.049 26.252,24.049 "/>
</svg>
